# xmcd
#
# Track frame offsets: 
#        150
#        24133
#        63172
#        92632
#        130406
#        162465
#        197154
#        221782
#        260659
#        286206
#
# Disc length: 4194 seconds
#
# Revision: 1
# Processed by: cddbd v1.5.1PL2 Copyright (c) Steve Scherf et al.
# Submitted via: ExactAudioCopy v0.95b3
#
DISCID=9110600a
DTITLE=Rava - Rusca Trio and Strings - Smiling in Hollywood
DYEAR=2002
DGENRE=Jazz
TTITLE0=Smile
TTITLE1=Take the "a" train
TTITLE2=As time goes by
TTITLE3=It's all right with me
TTITLE4=From simphony no. 3
TTITLE5=Love me or leave me
TTITLE6=Over the rainbow
TTITLE7=Stormy waeather
TTITLE8=We have all the time in the world
TTITLE9=Midnght with the stars and you
EXTD=YEAR: 2002
EXTT0=
EXTT1=
EXTT2=
EXTT3=
EXTT4=
EXTT5=
EXTT6=
EXTT7=
EXTT8=
EXTT9=
PLAYORDER=
